<svg xmlns="http://www.w3.org/2000/svg" viewBox="0 0 512 512">
  <rect width="512" height="512" rx="118" fill="#1d352b"/>
  <path fill="#f2c66d" d="M143 99c-31 2-54 34-47 67 5 24 24 45 48 54-6 15-9 31-9 48 0 74 53 134 121 134s121-60 121-134c0-17-3-33-9-48 24-9 43-30 48-54 7-33-16-65-47-67-26-2-48 16-61 38-16-7-34-11-52-11s-36 4-52 11c-13-22-35-40-61-38Z"/>
  <ellipse cx="207" cy="249" rx="15" ry="18" fill="#1d352b"/>
  <ellipse cx="305" cy="249" rx="15" ry="18" fill="#1d352b"/>
  <path fill="#1d352b" d="M221 299c0-17 16-29 35-29s35 12 35 29c0 13-15 27-35 27s-35-14-35-27Z"/>
  <path fill="none" stroke="#1d352b" stroke-linecap="round" stroke-width="14" d="M256 321v29m0 0c-17 19-40 18-51 2m51-2c17 19 40 18 51 2"/>
</svg>

